<svg width="24" height="25" viewBox="0 0 24 25" fill="none" xmlns="http://www.w3.org/2000/svg">
<path d="M10.6301 4.44994L8.62006 9.11994L8.18006 10.1599C8.10006 10.3199 7.89006 10.4599 7.71006 10.4599L4.65006 10.4599C3.69006 10.4599 2.55006 11.1699 2.11006 12.0299C1.96006 12.3299 1.96006 12.6899 2.11006 12.9899C2.55006 13.8399 3.70006 14.5499 4.66006 14.5499L7.72006 14.5499C7.90006 14.5499 8.11006 14.6899 8.19006 14.8499L10.6401 20.5499C10.9001 21.1799 11.6901 21.6899 12.3701 21.6899L13.6901 21.6899C14.5401 21.6899 14.9601 21.0499 14.6201 20.2599L12.4601 15.2499C12.2901 14.8599 12.5001 14.5399 12.9301 14.5399L14.0401 14.5399L15.8401 14.5399C16.0701 14.5399 16.4001 14.6699 16.5601 14.8299L18.8901 17.1499C19.1301 17.3899 19.6001 17.4999 19.9401 17.3899L21.3001 16.9399C21.8901 16.7599 22.1701 16.0899 21.8901 15.5399L19.8901 13.1599C19.5801 12.7999 19.5801 12.2099 19.8901 11.8499L21.8901 9.46994C22.1601 8.91994 21.8901 8.24994 21.3001 8.04994L19.9401 7.59994C19.6101 7.48994 19.1301 7.59994 18.8901 7.83994L16.5601 10.1599C16.4001 10.3299 16.0701 10.4599 15.8401 10.4599L12.9301 10.4599C12.5001 10.4599 12.3001 10.1499 12.4601 9.74994L14.6201 4.73994C14.9601 3.94994 14.5401 3.30994 13.6901 3.30994L12.3701 3.30994C11.6901 3.30994 10.9001 3.81994 10.6301 4.44994Z" fill="#606060"/>
</svg>
