<svg width="29" height="34" viewBox="0 0 29 34" fill="none" xmlns="http://www.w3.org/2000/svg">
<path d="M23.8864 18.0811C23.8473 13.7857 27.4464 11.696 27.611 11.5987C25.5727 8.66274 22.4133 8.26159 21.3031 8.2296C18.6496 7.95373 16.0757 9.79822 14.724 9.79822C13.3453 9.79822 11.2638 8.25626 9.02042 8.30157C6.13356 8.34555 3.43286 9.9968 1.95165 12.561C-1.10518 17.7893 1.17463 25.4724 4.10331 29.6985C5.56833 31.7683 7.28021 34.0792 9.5209 33.9979C11.713 33.9086 12.5319 32.6172 15.1773 32.6172C17.7984 32.6172 18.5673 33.9979 20.8525 33.9459C23.2052 33.9086 24.6864 31.8669 26.1001 29.7785C27.7931 27.4062 28.473 25.07 28.5 24.95C28.4447 24.9314 23.9309 23.2295 23.8864 18.0811Z" fill="white"/>
<path d="M19.5696 5.44953C20.7486 3.99286 21.5553 2.01109 21.3314 0C19.6249 0.0746328 17.4908 1.16614 16.2619 2.59083C15.1746 3.84626 14.2033 5.90399 14.4542 7.83911C16.3711 7.98038 18.3393 6.88354 19.5696 5.44953Z" fill="white"/>
</svg>
