<svg width="32" height="32" viewBox="0 0 32 32" fill="none" xmlns="http://www.w3.org/2000/svg">
<rect width="32" height="32" rx="8" fill="#E8F4FA"/>
<path d="M16 26.75C10.07 26.75 5.25 21.93 5.25 16C5.25 10.07 10.07 5.25 16 5.25C21.93 5.25 26.75 10.07 26.75 16C26.75 21.93 21.93 26.75 16 26.75ZM16 6.75C10.9 6.75 6.75 10.9 6.75 16C6.75 21.1 10.9 25.25 16 25.25C21.1 25.25 25.25 21.1 25.25 16C25.25 10.9 21.1 6.75 16 6.75Z" fill="#1D91CC"/>
<path d="M19.5299 18.0099C19.3399 18.0099 19.1499 17.9399 18.9999 17.7899L15.9999 14.7899L12.9999 17.7899C12.7099 18.0799 12.2299 18.0799 11.9399 17.7899C11.6499 17.4999 11.6499 17.0199 11.9399 16.7299L15.4699 13.1999C15.7599 12.9099 16.2399 12.9099 16.5299 13.1999L20.0599 16.7299C20.3499 17.0199 20.3499 17.4999 20.0599 17.7899C19.9099 17.9399 19.7199 18.0099 19.5299 18.0099Z" fill="#1D91CC"/>
</svg>
